<svg width="1239.3" height="548.1" version="1.1" viewBox="0 0 327.91 145.02" xmlns="http://www.w3.org/2000/svg">
 <path d="m290.41 19.376c-14.719 24.656-29.437 49.313-44.156 73.969h44.156v-73.969zm-3.0938-17.25h21.938v91.219h18.656v15.375h-18.656v33.375h-18.844v-33.375h-59.344c0.2536-6.1339-0.50877-12.563 0.3839-18.511 18.622-29.361 37.244-58.722 55.866-88.083zm-123.57-2.06c18.486-1.1471 34.332 12.852 39.418 29.951 7.7091 24.264 7.4874 50.702 2.7026 75.527-3.5568 18.451-16.3 37.71-36.691 38.986-18.273 2.9828-36.959-8.0094-43.161-25.467-9.3638-24.14-8.9445-51.103-5.0376-76.345 3.0545-18.674 14.192-39.25 34.752-42.01 2.6472-0.44593 5.3333-0.64273 8.0167-0.64269zm0 129.75c15.474 0.43882 22.486-16.507 24.267-29.396 2.9185-18.471 2.6844-37.41 0.20142-55.917-14.875 23.281-29.75 46.563-44.625 69.844 3.4052 8.1692 10.665 15.826 20.156 15.469zm0-114.75c-15.433-0.39678-22.502 16.493-24.203 29.396-2.7106 17.417-2.7639 35.283-0.26557 52.729 14.563-23.219 29.125-46.437 43.688-69.656-3.7978-7.0713-10.833-12.747-19.219-12.469zm-104.34 4.31c-14.719 24.656-29.437 49.313-44.156 73.969h44.156v-73.969zm-3.0938-17.25h21.938v91.219h18.656v15.375h-18.656v33.375h-18.844v-33.375h-59.344c0.2536-6.1339-0.50877-12.563 0.3839-18.511 18.622-29.361 37.244-58.722 55.866-88.083z"/>
</svg>
