<svg width="100" height="100" viewBox="0 0 100 100" fill="none" xmlns="http://www.w3.org/2000/svg">
<path fill-rule="evenodd" clip-rule="evenodd" d="M14.4737 0L21.0526 26.3158H7.89474L14.4737 0ZM69.7368 40.7895C70.7837 40.7895 71.7878 40.3736 72.5281 39.6333C73.2683 38.893 73.6842 37.889 73.6842 36.8421C73.6842 35.7952 73.2683 34.7912 72.5281 34.0509C71.7878 33.3106 70.7837 32.8947 69.7368 32.8947C68.6899 32.8947 67.6859 33.3106 66.9456 34.0509C66.2054 34.7912 65.7895 35.7952 65.7895 36.8421C65.7895 37.889 66.2054 38.893 66.9456 39.6333C67.6859 40.3736 68.6899 40.7895 69.7368 40.7895V40.7895ZM0 94.7368H52.6316V100H0V94.7368ZM0 84.2105H40.7895V89.4737H0V84.2105ZM26.3158 63.1579H52.6316V68.4211H26.3158V63.1579ZM0 73.6842H52.6316V78.9474H0V73.6842ZM82.8947 40.7895C83.9416 40.7895 84.9457 40.3736 85.686 39.6333C86.4262 38.893 86.8421 37.889 86.8421 36.8421C86.8421 35.7952 86.4262 34.7912 85.686 34.0509C84.9457 33.3106 83.9416 32.8947 82.8947 32.8947C81.8478 32.8947 80.8438 33.3106 80.1035 34.0509C79.3633 34.7912 78.9474 35.7952 78.9474 36.8421C78.9474 37.889 79.3633 38.893 80.1035 39.6333C80.8438 40.3736 81.8478 40.7895 82.8947 40.7895V40.7895ZM96.0526 40.7895C97.0995 40.7895 98.1036 40.3736 98.8438 39.6333C99.5841 38.893 100 37.889 100 36.8421C100 35.7952 99.5841 34.7912 98.8438 34.0509C98.1036 33.3106 97.0995 32.8947 96.0526 32.8947C95.0057 32.8947 94.0017 33.3106 93.2614 34.0509C92.5211 34.7912 92.1053 35.7952 92.1053 36.8421C92.1053 37.889 92.5211 38.893 93.2614 39.6333C94.0017 40.3736 95.0057 40.7895 96.0526 40.7895V40.7895ZM69.7368 53.9474C70.7837 53.9474 71.7878 53.5315 72.5281 52.7912C73.2683 52.0509 73.6842 51.0469 73.6842 50C73.6842 48.9531 73.2683 47.9491 72.5281 47.2088C71.7878 46.4685 70.7837 46.0526 69.7368 46.0526C68.6899 46.0526 67.6859 46.4685 66.9456 47.2088C66.2054 47.9491 65.7895 48.9531 65.7895 50C65.7895 51.0469 66.2054 52.0509 66.9456 52.7912C67.6859 53.5315 68.6899 53.9474 69.7368 53.9474V53.9474ZM82.8947 53.9474C83.9416 53.9474 84.9457 53.5315 85.686 52.7912C86.4262 52.0509 86.8421 51.0469 86.8421 50C86.8421 48.9531 86.4262 47.9491 85.686 47.2088C84.9457 46.4685 83.9416 46.0526 82.8947 46.0526C81.8478 46.0526 80.8438 46.4685 80.1035 47.2088C79.3633 47.9491 78.9474 48.9531 78.9474 50C78.9474 51.0469 79.3633 52.0509 80.1035 52.7912C80.8438 53.5315 81.8478 53.9474 82.8947 53.9474ZM96.0526 53.9474C97.0995 53.9474 98.1036 53.5315 98.8438 52.7912C99.5841 52.0509 100 51.0469 100 50C100 48.9531 99.5841 47.9491 98.8438 47.2088C98.1036 46.4685 97.0995 46.0526 96.0526 46.0526C95.0057 46.0526 94.0017 46.4685 93.2614 47.2088C92.5211 47.9491 92.1053 48.9531 92.1053 50C92.1053 51.0469 92.5211 52.0509 93.2614 52.7912C94.0017 53.5315 95.0057 53.9474 96.0526 53.9474V53.9474ZM56.5789 53.9474C57.6259 53.9474 58.6299 53.5315 59.3702 52.7912C60.1104 52.0509 60.5263 51.0469 60.5263 50C60.5263 48.9531 60.1104 47.9491 59.3702 47.2088C58.6299 46.4685 57.6259 46.0526 56.5789 46.0526C55.532 46.0526 54.528 46.4685 53.7877 47.2088C53.0475 47.9491 52.6316 48.9531 52.6316 50C52.6316 51.0469 53.0475 52.0509 53.7877 52.7912C54.528 53.5315 55.532 53.9474 56.5789 53.9474ZM19.7368 43.4211C19.7368 41.6762 19.0437 40.0028 17.8099 38.769C16.5761 37.5352 14.9027 36.8421 13.1579 36.8421C11.413 36.8421 9.73967 37.5352 8.50588 38.769C7.27208 40.0028 6.57895 41.6762 6.57895 43.4211H19.7368ZM32.8947 43.4211C32.8947 45.1659 32.2016 46.8393 30.9678 48.0731C29.734 49.3069 28.0606 50 26.3158 50C24.5709 50 22.8976 49.3069 21.6638 48.0731C20.43 46.8393 19.7368 45.1659 19.7368 43.4211H32.8947ZM73.6842 6.57895C73.6842 4.8341 72.9911 3.16072 71.7573 1.92693C70.5235 0.693137 68.8501 0 67.1053 0C65.3604 0 63.687 0.693137 62.4532 1.92693C61.2195 3.16072 60.5263 4.8341 60.5263 6.57895H73.6842ZM86.8421 6.57895C86.8421 8.32379 86.149 9.99717 84.9152 11.231C83.6814 12.4648 82.008 13.1579 80.2632 13.1579C78.5183 13.1579 76.8449 12.4648 75.6111 11.231C74.3773 9.99717 73.6842 8.32379 73.6842 6.57895H86.8421ZM82.8947 67.1053C83.9416 67.1053 84.9457 66.6894 85.686 65.9491C86.4262 65.2088 86.8421 64.2048 86.8421 63.1579C86.8421 62.111 86.4262 61.107 85.686 60.3667C84.9457 59.6264 83.9416 59.2105 82.8947 59.2105C81.8478 59.2105 80.8438 59.6264 80.1035 60.3667C79.3633 61.107 78.9474 62.111 78.9474 63.1579C78.9474 64.2048 79.3633 65.2088 80.1035 65.9491C80.8438 66.6894 81.8478 67.1053 82.8947 67.1053ZM96.0526 67.1053C97.0995 67.1053 98.1036 66.6894 98.8438 65.9491C99.5841 65.2088 100 64.2048 100 63.1579C100 62.111 99.5841 61.107 98.8438 60.3667C98.1036 59.6264 97.0995 59.2105 96.0526 59.2105C95.0057 59.2105 94.0017 59.6264 93.2614 60.3667C92.5211 61.107 92.1053 62.111 92.1053 63.1579C92.1053 64.2048 92.5211 65.2088 93.2614 65.9491C94.0017 66.6894 95.0057 67.1053 96.0526 67.1053V67.1053ZM27.6316 0L34.2105 26.3158H21.0526L27.6316 0ZM84.2105 84.2105V78.9474H78.9474V84.2105H73.6842V89.4737H78.9474V94.7368H84.2105V89.4737H89.4737V84.2105H84.2105ZM47.3684 17.1053H52.6316V22.3684H47.3684V17.1053ZM52.6316 22.3684H57.8947V27.6316H52.6316V22.3684ZM47.3684 27.6316H52.6316V32.8947H47.3684V27.6316ZM57.8947 17.1053H63.1579V22.3684H57.8947V17.1053Z" fill="#ECEFF4" fill-opacity="0.6"/>
</svg>
