<svg xmlns="http://www.w3.org/2000/svg" width="90" height="91" fill="none" viewBox="0 0 90 91"><path fill="#2E3440" d="M40.8956 41.3938C38.6274 43.6619 38.6274 47.3381 40.8956 49.6044C43.1619 51.8726 46.8399 51.8726 49.1063 49.6044C51.3744 47.3363 51.3744 43.6601 49.1063 41.3938C46.8381 39.1274 43.1619 39.1274 40.8956 41.3938ZM45 0.5C20.1466 0.5 0 20.6466 0 45.5C0 70.3534 20.1466 90.5 45 90.5C69.8534 90.5 90 70.3534 90 45.5C90 20.6466 69.8534 0.5 45 0.5ZM67.8883 27.3639L55.9179 53.5565C55.339 54.8231 54.3231 55.839 53.0565 56.4179L26.8657 68.3883C23.8446 69.7692 20.7308 66.6554 22.1117 63.6343L34.0839 37.4417C34.6629 36.175 35.6787 35.1592 36.9454 34.5802L63.1361 22.6099C66.1573 21.2308 69.2692 24.3427 67.8883 27.3639V27.3639Z"/></svg>