<svg xmlns="http://www.w3.org/2000/svg" width="300" height="300" fill="none" viewBox="0 0 300 300"><path fill="#81A1C1" d="M297.253 49.623L271.876 24.2402C268.361 20.7246 263.591 18.75 258.616 18.75H168.75V9.375C168.75 4.19531 164.555 0 159.375 0H140.625C135.445 0 131.25 4.19531 131.25 9.375V18.75H32.8114C25.0476 18.75 18.7487 25.0488 18.7487 32.8125V79.6875C18.7487 87.4512 25.0476 93.75 32.8114 93.75H258.616C263.591 93.75 268.355 91.7754 271.876 88.2598L297.253 62.8828C300.916 59.2148 300.916 53.2852 297.253 49.623ZM131.25 290.625C131.25 295.805 135.445 300 140.625 300H159.375C164.555 300 168.75 295.805 168.75 290.625V225H131.25V290.625ZM267.189 131.25H168.75V112.5H131.25V131.25H41.3837C36.409 131.25 31.6453 133.225 28.1238 136.74L2.74661 162.123C-0.915536 165.785 -0.915536 171.721 2.74661 175.383L28.1238 200.76C31.6395 204.275 36.409 206.25 41.3837 206.25H267.189C274.952 206.25 281.251 199.951 281.251 192.188V145.312C281.251 137.549 274.952 131.25 267.189 131.25Z"/></svg>