<?xml version="1.0" encoding="iso-8859-1"?>
<!-- Generator: Adobe Illustrator 19.0.0, SVG Export Plug-In . SVG Version: 6.00 Build 0)  -->
<svg xmlns="http://www.w3.org/2000/svg" xmlns:xlink="http://www.w3.org/1999/xlink" version="1.1" id="Layer_1" x="0px" y="0px" viewBox="0 0 482.62 482.62" style="enable-background:new 0 0 482.62 482.62;" xml:space="preserve" width="512" height="512">
<g>
	<path style="fill:#3EBD9E;" d="M237.908,361.527c-8.169-0.237-14.568-6.815-14.568-14.977c0-4.962,2.467-9.598,6.598-12.4   c-26.153,7-46.675,8.424-50.523,8.638l-0.578,0.032l-0.576-0.051c-2.631-0.234-5.077-1.437-7.071-3.477   c-2.688-2.803-4.15-6.748-4.068-10.882c0.093-5.435,2.936-10.411,7.242-12.655l0.258-0.134l0.267-0.115   c1.286-0.556,12.983-5.682,27.72-14.601l2.628-1.59l159.861,30.579l-27.033,9.953c-49.075,18.068-94.414,21.351-99.422,21.666   l-0.367,0.022L237.908,361.527z"/>
	<path style="fill:#3EBD9E;" d="M211.397,172.291c-20.172-18.538-50.15-30.803-53.502-32.14l-0.256-0.103l-0.248-0.119   c-3.409-1.641-5.611-5.146-5.611-8.929c0-5.171,4.036-9.51,9.188-9.88l0.545-0.039l0.546,0.035   c4.826,0.313,48.274,3.643,87.244,23.776l14.163,7.317l-14.331,6.982c-7.61,3.707-17.267,8.532-28.701,14.34l-4.949,2.514   L211.397,172.291z"/>
	<path style="fill:#61ACD2;" d="M355.309,327.129c-3.18,0-6.369-0.31-9.479-0.919l-221.483-42.363   c-12.59-2.411-21.727-13.458-21.727-26.268v-6.56c0-10.068,5.599-19.201,14.613-23.835l0.622-0.328   c21.145-11.159,127.705-67.26,149.017-75.874l0.162-0.065l0.164-0.059c7.079-2.508,14.465-3.779,21.952-3.779   c10.675,0,21.306,2.643,30.744,7.642l141.001,74.689c8.469,4.495,13.726,13.237,13.726,22.819v0.311   c0,9.352-5.067,17.987-13.225,22.536l-81.975,45.788C372.099,324.962,363.759,327.129,355.309,327.129z"/>
	<path style="fill:#3EBD9E;" d="M17.188,312.27C12.036,311.901,8,307.561,8,302.39c0-3.835,2.216-7.348,5.646-8.949l0.215-0.101   l0.22-0.087c4.019-1.594,39.828-16.202,59.502-38.153c-8.589-9.58-21.207-18.912-37.502-27.735   c-11.676-6.322-20.918-9.999-21.934-10.397l-0.305-0.12l-0.294-0.145C10.125,215.025,8,211.614,8,207.8   c0-5.174,4.042-9.514,9.203-9.88l0.542-0.039l0.543,0.035c4.874,0.316,48.75,3.681,87.813,24.071l8.693,4.537l-6.191,7.605   c-3.859,4.74-5.984,10.738-5.984,16.89v6.56c0,6.507,2.392,12.798,6.735,17.714l6.718,7.605l-8.962,4.758   c-39.42,20.926-83.898,24.302-88.84,24.617l-0.542,0.035L17.188,312.27z"/>
	<g>
		<path d="M464.64,222.35l-141-74.69c-10.59-5.61-22.51-8.58-34.49-8.58c-8.48,0-16.83,1.45-24.81,4.3    c-0.09,0.04-0.19,0.07-0.28,0.11c-0.17,0.07-0.37,0.15-0.55,0.23c-44.52-27.31-99.01-30.49-101.39-30.62    c-0.14-0.01-0.28-0.01-0.42-0.01c-9.89,0-17.92,8.03-17.92,17.91c0,7.13,4.22,13.57,10.85,16.46c0.05,0.03,0.16,0.07,0.21,0.09    c1.28,0.5,27.21,10.87,46.61,26.7c-35.45,18.18-73.98,38.49-85,44.3c-43.9-25.5-95.85-28.53-98.11-28.65    c-0.14-0.01-0.28-0.01-0.42-0.01C8.04,189.89,0,197.92,0,207.8c0,7.14,4.23,13.59,10.78,16.43c0.08,0.04,0.18,0.08,0.27,0.11    c0.98,0.39,9.93,3.95,21.23,10.06c12.19,6.6,22.43,13.67,30.06,20.7c-19.59,18.09-49.88,30.19-51.28,30.74    c-0.08,0.03-0.2,0.08-0.28,0.12C4.23,288.79,0,295.24,0,302.39c0,9.88,8.04,17.91,17.92,17.91c0.14,0,0.28,0,0.42-0.01    c2.32-0.12,55.72-3.24,99.99-29.77c1.46,0.49,2.96,0.89,4.51,1.18l59.46,11.38c-6.31,3.23-10.98,5.25-11.07,5.3    c-7.19,3.45-11.94,11.26-12.11,19.88c-0.12,6.23,2.15,12.26,6.25,16.52c3.64,3.79,8.43,5.93,13.48,6.03c0.16,0,0.32,0,0.48-0.01    c0.75-0.03,15.18-0.67,36.02-4.98c-0.01,0.24-0.01,0.49-0.01,0.73c0,12.67,10.31,22.98,22.99,22.98c0.14,0,0.28,0,0.42-0.01    c3.13-0.17,75.36-4.35,139.33-38.8c1.32-0.72,20.09-11.16,20.09-11.16l67.13-37.5c10.69-5.97,17.32-17.28,17.32-29.52v-0.31    C482.62,239.67,475.73,228.22,464.64,222.35z M160.86,132.72c-0.52-0.25-1.08-0.84-1.08-1.72c0-1,0.78-1.83,1.76-1.9    c3.85,0.25,46.52,3.49,84.09,22.9c-8.21,4-18.13,8.97-28.82,14.4C195.7,147,165.27,134.48,160.86,132.72z M17.76,304.29    c-0.98-0.07-1.76-0.9-1.76-1.9c0-0.9,0.58-1.49,1.03-1.7c4.59-1.82,41.68-17.01,62.51-40.25c2.73-3.04,2.73-7.64,0-10.68    c-9.19-10.25-22.53-20.16-39.65-29.43c-11.71-6.34-21.24-10.19-22.82-10.81c-0.51-0.25-1.07-0.83-1.07-1.72    c0-1,0.78-1.83,1.77-1.9c3.85,0.25,46.85,3.46,84.63,23.18c-4.95,6.08-7.78,13.77-7.78,21.94v6.56c0,8.73,3.28,16.83,8.74,23.01    C65.44,300.72,21.67,304.04,17.76,304.29z M238.14,353.53c-3.77-0.11-6.8-3.2-6.8-6.98c0-2.31,1.16-4.47,3.09-5.78    c3.23-2.19,4.41-6.4,2.79-9.95c-1.33-2.9-4.21-4.67-7.28-4.67c-0.68,0-1.38,0.09-2.07,0.27c-25.85,6.92-46.2,8.23-48.9,8.38    c-0.9-0.08-1.61-0.64-2.06-1.1c-1.16-1.21-1.83-3.12-1.79-5.13c0.05-2.92,1.54-4.99,2.94-5.72c2.13-0.92,13.95-6.18,28.69-15.1    l128.55,24.59C287.01,350.12,241.79,353.3,238.14,353.53z M466.62,252.54c0,6.45-3.49,12.41-9.12,15.55l-81.98,45.79    c-8.47,4.74-18.51,6.37-28.15,4.48l-221.52-42.37c-8.82-1.69-15.23-9.43-15.23-18.41v-6.56c0-7.06,3.91-13.45,10.27-16.72    c1.26-0.66,126.07-66.64,148.98-75.9c6.21-2.2,12.69-3.32,19.28-3.32c9.38,0,18.71,2.32,27,6.71l141,74.69    c5.84,3.1,9.47,9.13,9.47,15.75V252.54z"/>
		<circle cx="412.291" cy="239.053" r="8"/>
		<path d="M297.286,239.053H196.963c-4.418,0-8,3.582-8,8s3.582,8,8,8h100.323c4.418,0,8-3.582,8-8S301.704,239.053,297.286,239.053    z"/>
	</g>
</g>















</svg>
