<?xml version="1.0" encoding="iso-8859-1"?>
<!-- Generator: Adobe Illustrator 19.0.0, SVG Export Plug-In . SVG Version: 6.00 Build 0)  -->
<svg version="1.1" id="Layer_1" xmlns="http://www.w3.org/2000/svg" xmlns:xlink="http://www.w3.org/1999/xlink" x="0px" y="0px"
	 viewBox="0 0 512 512" style="enable-background:new 0 0 512 512;" xml:space="preserve">
<g>
	<path style="fill:#3E81C8;" d="M465.274,202.154c-19.356-12.499-43.32-23.062-69.176-30.92
		c-32.323-9.85-67.606-15.449-100.541-15.304c-23.763,0.1-62.186,8.192-99.584,21.838c-59.381-50.61-37.71-74.273-5.866-89.511
		c21.604-10.329,42.518-12.577,66.449-11.698C386.137,81.355,452.474,180.75,465.274,202.154z"/>
	<path style="fill:#3E81C8;" d="M444.282,332.503c-9.817,25.166-51.267,107.309-173.245,102.945
		c-11.731-0.412-58.223-6.689-67.05-14.425c-12.9-11.297-21.526-36.998-1.937-73.906c35.439,12.333,71.034,19.567,93.507,19.679
		c45.101,0.2,94.631-10.396,134.923-27.859C435.211,336.888,439.83,334.74,444.282,332.503z"/>
</g>
<g>
	<path style="fill:#3768AF;" d="M512,261.357c0,29.64-27.859,56.71-67.718,76.711c-4.452,2.237-9.071,4.385-13.802,6.433
		c-109.145-41.327-38.111-172.132-34.382-178.833c25.856,7.858,49.82,18.421,69.176,30.92C493.579,214.854,512,237.259,512,261.357z
		"/>
	<path style="fill:#3768AF;" d="M168.76,336.91c0.2,0.089,0.401,0.189,0.601,0.278c-23.386,8.846-50.176,25.434-70.37,53.713
		c-6.138,8.597-17.229,12.115-27.238,8.735C30.722,385.778,0,329.129,0,261.357s30.722-124.422,71.753-138.281
		c10.008-3.38,21.099,0.138,27.238,8.735c20.194,28.28,46.984,44.869,70.37,53.724c-0.2,0.089-0.401,0.189-0.601,0.278
		c-41.85,19.801-75.754,46.325-75.754,75.542S126.909,317.109,168.76,336.91z"/>
</g>
<path style="fill:#61ACD2;" d="M430.481,344.501c-40.292,17.464-89.823,28.06-134.923,27.859
	c-22.472-0.111-58.067-7.346-93.507-19.679c-12.989-4.508-25.967-9.717-38.255-15.494c-0.2-0.089-0.401-0.189-0.601-0.278
	c-41.85-19.801-75.754-46.336-75.754-75.553s33.903-55.741,75.754-75.542c0.2-0.089,0.401-0.189,0.601-0.278
	c10.374-4.875,21.226-9.35,32.178-13.334c37.398-13.646,75.82-21.738,99.584-21.838c32.935-0.145,68.218,5.454,100.541,15.304
	C392.37,172.369,321.336,303.174,430.481,344.501z"/>
<circle style="fill:#495577;" cx="438.539" cy="246.65" r="8.904"/>
<g>
	<path style="fill:#3E81C8;" d="M327.421,225.96c-16.085,0-29.125-13.039-29.125-29.125c0-16.085,13.039-29.125,29.125-29.125
		V225.96z"/>
	<path style="fill:#3E81C8;" d="M327.421,284.209c-16.085,0-29.125-13.039-29.125-29.125c0-16.085,13.039-29.125,29.125-29.125
		V284.209z"/>
	<path style="fill:#3E81C8;" d="M327.421,342.459c-16.085,0-29.125-13.039-29.125-29.125s13.039-29.125,29.125-29.125V342.459z"/>
	<path style="fill:#3E81C8;" d="M263.791,233.009c-12.192,0-22.075-9.884-22.075-22.075c0-12.192,9.884-22.075,22.075-22.075
		V233.009z"/>
	<path style="fill:#3E81C8;" d="M263.791,277.16c-12.192,0-22.075-9.884-22.075-22.075c0-12.192,9.884-22.075,22.075-22.075V277.16z
		"/>
	<path style="fill:#3E81C8;" d="M263.791,321.311c-12.192,0-22.075-9.884-22.075-22.075c0-12.192,9.884-22.075,22.075-22.075
		V321.311z"/>
	<path style="fill:#3E81C8;" d="M202.574,240.958c-7.801,0-14.127-6.324-14.127-14.127s6.324-14.127,14.127-14.127V240.958z"/>
	<path style="fill:#3E81C8;" d="M202.574,269.21c-7.801,0-14.127-6.324-14.127-14.127c0-7.801,6.324-14.127,14.127-14.127V269.21z"
		/>
	<path style="fill:#3E81C8;" d="M202.574,297.464c-7.801,0-14.127-6.324-14.127-14.127c0-7.801,6.324-14.127,14.127-14.127V297.464z
		"/>
</g>
<g>
</g>
<g>
</g>
<g>
</g>
<g>
</g>
<g>
</g>
<g>
</g>
<g>
</g>
<g>
</g>
<g>
</g>
<g>
</g>
<g>
</g>
<g>
</g>
<g>
</g>
<g>
</g>
<g>
</g>
</svg>
