<?xml version="1.0" encoding="iso-8859-1"?>
<!-- Generator: Adobe Illustrator 19.0.0, SVG Export Plug-In . SVG Version: 6.00 Build 0)  -->
<svg version="1.1" id="Layer_1" xmlns="http://www.w3.org/2000/svg" xmlns:xlink="http://www.w3.org/1999/xlink" x="0px" y="0px"
	 viewBox="0 0 512 512" style="enable-background:new 0 0 512 512;" xml:space="preserve">
<g>
	<path style="fill:#61ACD2;" d="M250.624,212.759c0.172-0.032,0.333-0.064,0.505-0.097l62.05-21.865l-2.298-1.16l-75.224-32.805
		C235.658,156.833,234.23,201.765,250.624,212.759z"/>
	<path style="fill:#61ACD2;" d="M207.418,358.904l124.639-13.098c0,0-0.011,0-0.011-0.011
		c-36.504-6.313-71.408-18.703-99.355-30.803C214.278,322.099,207.418,358.904,207.418,358.904z"/>
</g>
<path style="fill:#495577;" d="M5.368,254.975l54.627,34.829L0,356.842l167.381-72.407c0,0,242.74,151.642,344.619-2.298
	l-201.094-92.473l-0.032-0.011l-143.493,50.569L0,153.096l59.995,67.038L5.368,254.975z"/>
<path style="fill:#61ACD2;" d="M374.01,296.249c-25.717-9.647-47.602-36.048-62.714-59.17c0.58,15.637,1.59,31.535,3.051,47.516
	c-9.613,7.039-20.018,12.944-30.746,16.386C312.788,311.54,345.28,309.417,374.01,296.249z"/>
<circle style="fill:#2A324E;" cx="432.615" cy="286.341" r="8.589"/>
<g>
</g>
<g>
</g>
<g>
</g>
<g>
</g>
<g>
</g>
<g>
</g>
<g>
</g>
<g>
</g>
<g>
</g>
<g>
</g>
<g>
</g>
<g>
</g>
<g>
</g>
<g>
</g>
<g>
</g>
</svg>
