<?xml version="1.0" encoding="iso-8859-1"?>
<!-- Generator: Adobe Illustrator 19.0.0, SVG Export Plug-In . SVG Version: 6.00 Build 0)  -->
<svg version="1.1" id="Capa_1" xmlns="http://www.w3.org/2000/svg" xmlns:xlink="http://www.w3.org/1999/xlink" x="0px" y="0px"
	 viewBox="0 0 212.198 212.198" style="enable-background:new 0 0 212.198 212.198;" xml:space="preserve">
<g>
	<path style="fill:#0064BF;" d="M170.937,68.888c-3.766-5.764-9.425-10.041-16.009-12.054c-9.147-2.797-18.926-4.54-29.108-4.54
		c-25.692,0-48.703,10.874-65.723,22.218c-1.888,1.258-2.095,3.956-0.441,5.509l27.758,26.078l-37.818,17.466
		c-2.391,1.104-2.788,4.35-0.719,5.979c17.294,13.61,45.055,30.36,76.943,30.36c6.927,0,13.667-0.808,20.15-2.206
		c6.729-1.451,12.748-5.19,17.006-10.6l32.273-41L170.937,68.888z"/>
	<path style="fill:#0055B8;" d="M206.9,94.563c-15.985-13.764-46.209-34.94-80.86-34.94c-51.337,0-92.953,46.476-92.953,46.476
		s41.616,46.477,92.953,46.477c34.651,0,64.875-21.176,80.86-34.941C213.964,111.552,213.964,100.645,206.9,94.563z"/>
	<path style="fill:#444D56;" d="M126.04,59.623c-51.337,0-92.953,46.476-92.953,46.476s7.57,8.451,20.23,18.145h83.789
		c9.746,0,17.646-7.9,17.646-17.646V64.25C145.709,61.399,136.062,59.623,126.04,59.623z M129.457,110.217
		c-5.049,0-9.142-4.093-9.142-9.142s4.093-9.142,9.142-9.142c5.049,0,9.143,4.093,9.143,9.142S134.506,110.217,129.457,110.217z"/>
	<g>
		<circle style="fill:#FFFFFF;" cx="180.079" cy="100.851" r="12.587"/>
		<circle style="fill:#814C3A;" cx="180.08" cy="100.851" r="6.293"/>
	</g>
	<g>
		<path style="fill:#444D56;" d="M45.417,93.036L5.688,72.796C3.085,71.469,0,73.36,0,76.282v51.882
			c0,2.921,3.085,4.813,5.688,3.486l39.729-20.24C52.924,107.586,52.924,96.86,45.417,93.036z"/>
		<path style="fill:#FFD224;" d="M36.694,98.489L0,79.795v44.856l36.694-18.695C39.745,104.402,39.745,100.044,36.694,98.489z"/>
	</g>
	<g>
		<path style="fill:#FFD224;" d="M131.798,110.139l-19.43-19.43c-14.221,14.221-14.221,37.277,0,51.498l19.43-19.43
			C135.287,119.287,135.287,113.629,131.798,110.139z"/>
		<path style="fill:#0063BE;" d="M131.798,110.139l-15.691-15.691c-12.156,12.156-12.156,31.865,0,44.021l15.691-15.691
			C135.287,119.287,135.287,113.629,131.798,110.139z"/>
	</g>
</g>
<g>
</g>
<g>
</g>
<g>
</g>
<g>
</g>
<g>
</g>
<g>
</g>
<g>
</g>
<g>
</g>
<g>
</g>
<g>
</g>
<g>
</g>
<g>
</g>
<g>
</g>
<g>
</g>
<g>
</g>
</svg>
