<?xml version="1.0" encoding="iso-8859-1"?>
<!-- Generator: Adobe Illustrator 19.0.0, SVG Export Plug-In . SVG Version: 6.00 Build 0)  -->
<svg xmlns="http://www.w3.org/2000/svg" xmlns:xlink="http://www.w3.org/1999/xlink" version="1.1" id="Layer_1" x="0px" y="0px" viewBox="0 0 482.2 482.2" style="enable-background:new 0 0 482.2 482.2;" xml:space="preserve" width="512" height="512">
<g>
	<path style="fill:#F4A026;" d="M397.772,318.895c-23.272-9.589-38.804-24.761-46.164-45.093   c-14.463-39.921,5.888-88.948,15.308-108.173l3.064-6.253l6.616,2.173c11.985,3.937,23.361,8.499,33.811,13.561   c40.541,19.625,63.793,45.278,63.793,70.38c0,25.096-23.252,50.746-63.794,70.371c-2.069,1.003-4.199,1.995-6.325,2.944   l-3.135,1.399L397.772,318.895z"/>
	<path style="fill:#F4A026;" d="M266.157,411.926c-2.77,0-5.61-0.051-8.443-0.152c-9.635-0.347-51.62-5.856-60.061-12.811   l-0.181-0.153c-11.308-9.894-18.818-32.699-2.771-64.413l3.088-6.103l6.509,2.102c14,4.521,28.293,8.263,41.332,10.822l9.01,1.768   l0.016-0.045l6.481,0.856c6.88,0.909,13.142,1.384,18.613,1.411h1.109c37.917,0,80.202-8.494,116.013-23.303l20.457-8.459   l-10.323,19.583c-6.065,11.505-13.591,22.123-22.37,31.559c-29.221,31.409-69.081,47.336-118.472,47.338   C266.163,411.926,266.16,411.926,266.157,411.926z"/>
	<path style="fill:#E46A53;" d="M279.78,345.209c-25.248-0.114-75.495-11.314-118.957-31.846   c-43.893-20.771-68.063-44.875-68.063-67.874c0-23.005,24.17-47.112,68.058-67.881c43.467-20.535,93.714-31.735,118.926-31.849   h1.116c25.548,0,53.129,3.81,79.76,11.018l9.273,2.51l-4.147,8.666c-8.975,18.755-28.321,66.607-14.163,105.799   c5.914,16.36,17.118,29.43,33.299,38.843l14.904,8.671l-16.245,5.781c-32.912,11.712-69.378,18.163-102.682,18.163H279.78z"/>
	<path style="fill:#F4A026;" d="M407.422,173.697c-37.426-17.494-84.739-27.938-126.563-27.938h-1.15   c-8.395,0.037-18.624,1.141-30.366,3.281l-4.918,0.896l-26.222-35.669l26.105,35.519l-11.711,2.812   c-11.417,2.741-23.09,6.14-34.692,10.103l-4.313,1.473l-3.466-2.958c-24.162-20.62-35.042-37.516-33.264-51.655   c1.373-10.995,10.316-20.091,28.146-28.618c15.415-7.376,31.418-10.666,51.889-10.666c2.5,0,5.127,0.05,7.807,0.148   c53.928,2.002,102.14,22.07,143.3,59.646c10.519,9.597,20.315,20.181,29.114,31.457L407.422,173.697z"/>
	<path style="fill:#F4A026;" d="M93.244,253.269l1.947,5.19c2.752,7.335,7.874,14.737,15.223,22l6.772,6.692l0.256-0.184   l4.701,3.574c6.83,5.192,14.862,10.331,23.875,15.273l13.271,7.278l-13.488,6.866c-22.362,11.383-40.333,27.769-53.415,48.701   l-2.623,4.197l-4.927-0.474c-19.919-1.916-38.677-15.052-52.818-36.989C16.53,311.388,8,279.459,8,245.489   c0-33.981,8.53-65.911,24.019-89.908c14.136-21.939,32.894-35.08,52.816-36.995l4.927-0.474l2.623,4.197   c13.082,20.933,31.053,37.318,53.415,48.7l13.488,6.866l-13.27,7.278c-15.476,8.488-27.836,17.407-36.737,26.509l-3.911,4   l-0.611,0.039l-4.804,7.453c-4.735,7.346-7.155,14.801-7.194,22.158l-0.042,7.958H93.244z"/>
	<path style="fill:#F4A026;" d="M466.2,245.489c0,21.91-21.6,44.93-59.28,63.17c-2,0.97-4.04,1.92-6.1,2.84   c-21.09-8.69-35.12-22.27-41.69-40.42c-13.6-37.54,6.87-85.4,14.97-101.93c11.51,3.78,22.56,8.19,32.82,13.16   C444.6,200.549,466.2,223.569,466.2,245.489z"/>
	<g>
		<circle cx="408.204" cy="232.271" r="8"/>
		<path d="M440.89,183.419l0.49-0.27c-0.63-1.18-15.78-29.46-47.52-58.57c-29.36-26.92-79.01-59.56-148.86-62.14    c-25.93-0.96-44.91,2.41-63.45,11.29c-12.91,6.17-30.34,16.51-32.63,34.85c-1.93,15.49,7.69,32.84,29.34,52.81    c-6.06,2.39-12,4.91-17.72,7.53c-19.7-7.89-45.67-23.63-63.63-54.59c-1.43-2.47-4.06-3.99-6.92-3.99    c-24.71,0-47.69,14.53-64.7,40.9C8.98,176.539,0,209.999,0,245.489c0,35.48,8.98,68.94,25.29,94.24    c17.01,26.38,39.99,40.9,64.7,40.9c2.86,0,5.49-1.52,6.92-3.98c17.96-30.97,43.93-46.71,63.63-54.6    c8.32,3.82,17.1,7.41,26.07,10.7c-16.75,34.73-7.78,60.37,5.59,72.08c11.55,10.11,60.34,14.76,65.23,14.94    c2.88,0.1,5.72,0.15,8.51,0.15c64.71,0,103.63-27.15,125.11-50.48c19.14-20.8,27.95-41.9,30.98-50.51    c38.89-20.69,60.17-46.56,60.17-73.44C482.2,223.329,467.74,201.869,440.89,183.419z M164.8,110.559    c0.99-7.93,8.73-15.26,23.66-22.4c16.05-7.68,32.78-10.59,55.95-9.74c51.97,1.93,98.47,21.29,138.2,57.56    c11.75,10.72,21.13,21.41,28.2,30.47c-38.51-18-86.8-28.69-129.95-28.69h-1.15c-9.13,0.04-20,1.26-31.8,3.41l-23.26-31.64    c-2.62-3.56-7.62-4.32-11.19-1.7c-3.55,2.61-4.32,7.62-1.7,11.18l18.97,25.81c-11.54,2.77-23.55,6.26-35.41,10.31    C168.45,132.199,163.83,118.269,164.8,110.559z M85.6,364.419c-17.47-1.68-33.98-13.38-46.86-33.36    C24.07,308.319,16,277.929,16,245.489c0-32.45,8.07-62.84,22.74-85.57c12.88-19.99,29.39-31.69,46.86-33.37    c16.33,26.13,37.73,42,56.57,51.59c-14.04,7.7-27.98,17.06-38.61,27.93c-10.37-4.68-26.56-15.82-32.64-20.26    c-3.56-2.6-8.57-1.83-11.18,1.74c-2.6,3.57-1.82,8.57,1.74,11.18c2.21,1.61,18.28,13.25,31.75,20.09    c-5.26,8.16-8.42,16.99-8.47,26.45H49.2c-4.41,0-8,3.58-8,8c0,4.42,3.59,8,8,8h38.5c3.38,9.01,9.44,17.32,17.09,24.88    c-8.91,6.2-24,16.03-31.94,18.48c-4.22,1.29-6.59,5.77-5.29,9.99c1.06,3.44,4.22,5.65,7.64,5.65c0.78,0,1.57-0.11,2.36-0.35    c12.39-3.81,33.39-18.46,39.74-23.01c7.76,5.9,16.3,11.22,24.87,15.92C123.33,322.419,101.93,338.289,85.6,364.419z     M164.24,306.129c-40.34-19.09-63.48-41.19-63.48-60.64c0-19.46,23.14-41.56,63.48-60.65c42.42-20.04,91.19-30.97,115.54-31.08    h1.08c25.15,0,52.14,3.83,77.67,10.74c-9.7,20.27-29.6,70.09-14.47,111.97c6.59,18.23,18.94,32.65,36.8,43.04    c-31.64,11.26-67.36,17.7-100,17.7h-1.08C255.43,337.099,206.66,326.169,164.24,306.129z M378.78,359.139    c-29.25,31.44-69.9,46.46-120.78,44.64c-13.07-0.47-49.81-6.5-55.26-10.99c-9.28-8.12-14.84-27.23-0.9-54.78    c14.4,4.65,28.85,8.43,42.25,11.06l-7.45,21.59c-1.44,4.18,0.78,8.73,4.96,10.17c0.86,0.3,1.74,0.44,2.6,0.44    c3.32,0,6.42-2.08,7.57-5.39l8.32-24.15c7.12,0.94,13.73,1.45,19.62,1.48h1.15c39.18,0,82.58-8.82,119.07-23.91    C395.36,337.969,388.54,348.649,378.78,359.139z M406.92,308.659c-2,0.97-4.04,1.92-6.1,2.84c-21.09-8.69-35.12-22.27-41.69-40.42    c-13.6-37.54,6.87-85.4,14.97-101.93c11.51,3.78,22.56,8.19,32.82,13.16c37.68,18.24,59.28,41.26,59.28,63.18    C466.2,267.399,444.6,290.419,406.92,308.659z"/>
	</g>
</g>















</svg>
