<?xml version="1.0" encoding="iso-8859-1"?>
<!-- Generator: Adobe Illustrator 19.0.0, SVG Export Plug-In . SVG Version: 6.00 Build 0)  -->
<svg version="1.1" id="Layer_1" xmlns="http://www.w3.org/2000/svg" xmlns:xlink="http://www.w3.org/1999/xlink" x="0px" y="0px"
	 viewBox="0 0 512 512" style="enable-background:new 0 0 512 512;" xml:space="preserve">
<g>
	<path style="fill:#F4A026;" d="M251.291,150.79c41.129,26.699,25.6,29.271,10.699,39.064c-12.812,8.417-8.429,18.91-5.011,26.131
		c66.222-8.815,118.206-2.741,157.452,8.453c2.862-6.581,23.801-66.85-147.115-107.206c-8.405-1.992-17.352-0.954-24.815,3.381
		C233.371,125.926,227.647,135.43,251.291,150.79z"/>
	<path style="fill:#F4A026;" d="M252.933,395.631c84.89-8.344,122.892-59.882,129.256-69.434c-30.925,0-68.902-4.383-115.405-15.686
		c9.189,16.712,7.825,46.841-17.715,49.075c-12.184,1.063-17.147,6.617-18.608,13.126
		C227.49,386.031,239.373,396.96,252.933,395.631z"/>
	<path style="fill:#F4A026;" d="M420.271,375.183c-4.094,0-7.893-2.62-9.201-6.728c-1.621-5.083,1.186-10.518,6.27-12.138
		c14.257-4.545,23.629-11.05,27.105-18.815c3.165-7.071,0.645-13.342,0.618-13.403c-2.178-4.871,0.005-10.584,4.875-12.763
		c4.87-2.18,10.584,0.005,12.761,4.875c0.636,1.424,6.027,14.334-0.621,29.184c-5.867,13.11-18.945,22.978-38.871,29.33
		C422.232,375.034,421.242,375.183,420.271,375.183z"/>
</g>
<path style="fill:#E46A53;" d="M174.745,230.729c-48.924-18.839-87.839-48.949-136.764-67.788C19.379,155.777,0,171.221,0,193.208
	v0.741c0,16.268,10.917,29.95,25.379,31.806c1.145,0.147,2.291,0.293,3.435,0.441c14.462,1.856,25.379,15.537,25.379,31.806v3.175
	c0,16.268-10.917,29.949-25.379,31.806c-1.145,0.147-2.291,0.293-3.435,0.441C10.917,295.28,0,308.961,0,325.229v0.741
	c0,21.988,19.379,37.431,37.981,30.268c48.925-18.839,87.839-52.419,136.764-71.258C463.782,388.182,512,275.918,512,275.918
	S414.944,163.653,174.745,230.729z"/>
<circle style="fill:#B15240;" cx="452.068" cy="271.698" r="9.66"/>
<g>
	<path style="fill:#F4A026;" d="M382.189,269.072c-8.464,0-15.326-6.861-15.326-15.326s6.861-15.326,15.326-15.326V269.072z"/>
	<path style="fill:#F4A026;" d="M382.189,299.723c-8.464,0-15.326-6.861-15.326-15.326c0-8.464,6.861-15.326,15.326-15.326V299.723z
		"/>
	<path style="fill:#F4A026;" d="M331.472,269.072c-8.464,0-15.326-6.861-15.326-15.326s6.861-15.326,15.326-15.326V269.072z"/>
	<path style="fill:#F4A026;" d="M331.472,299.723c-8.464,0-15.326-6.861-15.326-15.326c0-8.464,6.861-15.326,15.326-15.326V299.723z
		"/>
</g>
<g>
</g>
<g>
</g>
<g>
</g>
<g>
</g>
<g>
</g>
<g>
</g>
<g>
</g>
<g>
</g>
<g>
</g>
<g>
</g>
<g>
</g>
<g>
</g>
<g>
</g>
<g>
</g>
<g>
</g>
</svg>
