<?xml version="1.0" encoding="iso-8859-1"?>
<!-- Generator: Adobe Illustrator 19.0.0, SVG Export Plug-In . SVG Version: 6.00 Build 0)  -->
<svg xmlns="http://www.w3.org/2000/svg" xmlns:xlink="http://www.w3.org/1999/xlink" version="1.1" id="Layer_1" x="0px" y="0px" viewBox="0 0 492.88 492.88" style="enable-background:new 0 0 492.88 492.88;" xml:space="preserve" width="512" height="512">
<g>
	<path style="fill:#F4A026;" d="M235.268,199.916c-5.663-9.161-7.509-24.729-8.105-33.193l-0.928-13.176l71.319,31.107   l-58.899,20.741L235.268,199.916z"/>
	<path style="fill:#F4A026;" d="M202.26,330.63c2.693-8.221,7.375-19.312,14.387-25.463l3.68-3.229l5.157,2.056   c14.116,5.983,28.394,11.245,42.438,15.642l-1.554,15.591l-67.954,7.141L202.26,330.63z"/>
	<path style="fill:#E46A53;" d="M358.063,335.07c-94.179,0-193.188-61.534-194.177-62.156L41.429,325.904l-9.138-12.678l31.59-35.3   l-50.877-32.445l50.877-32.445l-26.63-29.76l9.656-12.432l117,60.9l133.654-47.096l187.61,86.269l-5.995,7.936   C450.997,316.156,410.248,335.07,358.063,335.07z"/>
	<path style="fill:#F4A026;" d="M308.104,294.58c-4.361,0-8.727-0.262-12.976-0.778l-22.859-2.775l19.657-11.995   c2.842-1.734,5.827-3.74,8.87-5.962c-0.53-5.675-0.999-11.489-1.403-17.271l-1.737-24.841l15.88,19.182   c9.096,10.988,18.382,19.682,27.601,25.84l14.484,9.676l-16.778,4.683C328.753,293.153,318.411,294.58,308.104,294.58z"/>
	<g>
		<circle cx="396.881" cy="271.186" r="8"/>
		<path d="M492.572,268.591c-0.64-2.24-2.23-4.1-4.35-5.07l-135.18-62.17l-54.66-25.06l-68.31-29.8c-2.43-1.06-5.24-0.85-7.48,0.57    c-2.24,1.42-3.63,3.86-3.72,6.51c-0.19,6.01-0.41,31,7.97,47.51l-62.33,21.97l-152.82-79.55c-3.43-1.78-7.64-0.86-10.01,2.19    s-2.22,7.36,0.36,10.24l49.6,55.42l-42.94,27.39c-2.31,1.47-3.7,4.01-3.7,6.75c0,2.73,1.4,5.27,3.7,6.74l42.94,27.38l-49.6,55.42    c-2.51,2.8-2.73,6.96-0.53,10.01c1.54,2.14,3.98,3.33,6.49,3.33c1.07,0,2.15-0.22,3.18-0.66l152.11-65.81    c6.69,3.95,22.13,12.72,43.25,22.47c-10.6,13.38-14.67,33.5-15.21,36.45c-0.47,2.48,0.27,5.04,1.98,6.89    c1.53,1.65,3.66,2.57,5.88,2.57c0.28,0,0.56-0.01,0.84-0.04l110.93-11.66c15.42,2.79,31.31,4.49,47.1,4.49    c58.77,0,103.69-22.84,133.49-67.87C492.842,273.251,493.212,270.841,492.572,268.591z M275.722,183.861l-33.65,11.85    c-3.95-6.39-6.15-18.48-6.93-29.55L275.722,183.861z M209.862,333.121c2.67-8.15,6.84-17.36,12.06-21.94    c0.15,0.06,0.29,0.12,0.44,0.18c12.41,5.26,27.1,10.88,43.17,15.91L209.862,333.121z M358.062,327.071    c-91.22,0-188.95-60.32-189.92-60.93c-1.29-0.81-2.76-1.21-4.24-1.21c-1.08,0-2.16,0.21-3.18,0.65l-122.47,52.98l31.59-35.3    c1.57-1.75,2.29-4.1,1.97-6.42c-0.32-2.33-1.65-4.4-3.63-5.66l-40.3-25.7l40.3-25.7c1.98-1.26,3.31-3.33,3.63-5.66    c0.32-2.32-0.4-4.67-1.97-6.42l-26.63-29.76l117,60.9c1.96,1.02,4.26,1.19,6.35,0.45l130.6-46.02l175.63,80.76    C446.202,309.231,407.652,327.071,358.062,327.071z"/>
		<path d="M359.162,276.441c-17.8-6.68-36.65-24.66-54.52-52c-1.97-3.01-5.7-4.33-9.12-3.25c-3.43,1.09-5.71,4.33-5.57,7.92    c0.49,13.32,1.32,26.78,2.46,40.09c-7.82,5.32-15.45,9.19-22.71,11.52c-3.26,1.04-5.49,4.05-5.55,7.47    c-0.06,3.42,2.06,6.5,5.28,7.67c12.35,4.47,25.4,6.73,38.81,6.73c8.7,0,17.5-0.99,26.15-2.9c8.66-1.92,17.17-4.77,25.3-8.49    c2.94-1.35,4.77-4.33,4.66-7.55C364.232,280.421,362.192,277.571,359.162,276.441z M296.092,285.861    c3.13-1.91,6.27-4.03,9.42-6.33c2.27-1.66,3.5-4.39,3.24-7.18c-0.52-5.68-0.98-11.39-1.38-17.11    c9.62,11.62,19.41,20.77,29.32,27.39C323.292,286.371,309.352,287.471,296.092,285.861z"/>
	</g>
</g>















</svg>
