<?xml version="1.0" encoding="iso-8859-1"?>
<!-- Generator: Adobe Illustrator 19.0.0, SVG Export Plug-In . SVG Version: 6.00 Build 0)  -->
<svg xmlns="http://www.w3.org/2000/svg" xmlns:xlink="http://www.w3.org/1999/xlink" version="1.1" id="Layer_1" x="0px" y="0px" viewBox="0 0 450.8 450.8" style="enable-background:new 0 0 450.8 450.8;" xml:space="preserve" width="512" height="512">
<g>
	<path style="fill:#61ACD2;" d="M80.753,442.8c-3.261,0-6.144-0.023-8.813-0.071l-2.669-15.488c9.3-3.493,18.605-7.271,27.657-11.23   c49.919-21.868,88.479-47.426,114.605-75.963c-45.425-9.973-83.246-47.048-87.409-51.243l-0.078-0.08   c-16.12,25.645-44.948,41.727-66.292,50.7l-17.399,7.314l6.843-17.59c5.817-14.953,13.844-38.854,19.052-67.806l0.021-0.115   c5.526-28.339,4.891-54.369-1.999-81.918l-0.067-0.291c-5.165-24.498-12.106-44.74-17.02-57.406l-6.812-17.56l17.367,7.29   c21.329,8.953,50.146,25.022,66.307,50.74c1.628-1.682,40.315-40.973,87.481-51.328c-26.106-28.534-64.667-54.092-114.604-75.968   c-9.047-3.957-18.353-7.735-27.653-11.229L71.94,8.071C74.61,8.023,77.492,8,80.753,8c49.019,0,121.327,6.444,187.434,37.142   c76.998,35.755,128.274,95.646,152.403,178.009l0.659,2.249l-0.659,2.249c-24.129,82.367-75.405,142.259-152.403,178.013   C202.084,436.357,129.774,442.8,80.753,442.8z"/>
	<g>
		<circle cx="357.333" cy="208.737" r="8"/>
		<path d="M428.933,223.2c-24.77-86.75-78.76-149.48-160.47-186.46C201.373,6.37,129.353,0,80.753,0c-24.73,0-51.19,2.43-51.56,2.45    c-3.95,0.18-7.17,3.22-7.59,7.14c-0.41,3.93,2.1,7.57,5.91,8.59c1.11,0.29,106.31,28.66,168.82,88.49    c-32.24,10.73-58.94,32.3-71.07,43.23c-28.77-37.13-80.7-52.02-83.05-52.68c-3.03-0.85-6.28,0.16-8.3,2.59    c-2.02,2.42-2.42,5.81-1.03,8.64c0.14,0.29,14.64,30.15,23.53,72.37c0.02,0.1,0.04,0.2,0.07,0.3c6.63,26.42,7.24,51.4,1.92,78.63    c0,0.04-0.01,0.08-0.02,0.12c-8.53,47.51-25.34,82.14-25.5,82.48c-1.39,2.83-0.99,6.21,1.03,8.64c2.01,2.43,5.27,3.44,8.3,2.59    c2.35-0.66,54.28-15.55,83.05-52.68c12.13,10.93,38.83,32.5,71.07,43.23c-62.46,59.76-167.71,88.2-168.82,88.49    c-3.81,1.01-6.29,4.65-5.88,8.56c0.4,3.92,3.62,6.96,7.55,7.17c0.38,0.02,26.85,2.45,51.57,2.45c0.01,0,0.01,0,0.02,0    c48.6,0,120.61-6.37,187.69-36.73c81.71-36.98,135.7-99.72,160.47-186.47C429.343,226.16,429.343,224.64,428.933,223.2z     M80.753,434.8c-2.99,0-5.89-0.02-8.67-0.07c8.52-3.2,17.99-6.99,28.05-11.39c50.95-22.32,90.42-48.53,117.3-77.89    c1.93-2.11,2.58-5.09,1.72-7.82s-3.12-4.79-5.91-5.4c-44.83-9.84-83.08-48.7-83.46-49.08c-1.71-1.76-4.13-2.64-6.58-2.39    c-2.44,0.26-4.63,1.63-5.93,3.7c-15.44,24.57-44.28,39.88-62.62,47.59c5.96-15.32,14.16-39.77,19.47-69.29    c5.76-29.54,5.09-56.68-2.09-85.39c-5.22-24.76-12.18-45.22-17.39-58.65c18.32,7.69,47.14,22.97,62.63,47.62    c1.3,2.07,3.49,3.44,5.93,3.7c2.45,0.25,4.87-0.63,6.58-2.39c0.38-0.39,38.5-39.21,83.46-49.08c2.79-0.61,5.05-2.67,5.91-5.4    s0.21-5.71-1.72-7.82c-26.88-29.37-66.35-55.57-117.3-77.89c-10.06-4.4-19.53-8.19-28.05-11.39c2.78-0.05,5.68-0.07,8.67-0.07    c101.32,0,278.8,27.26,332.16,209.4C359.553,407.55,182.073,434.8,80.753,434.8z"/>
		<path d="M117.037,251.731c-3.792,0-7.159-2.707-7.862-6.57c-2.518-13.849-0.175-34.168-0.074-35.026    c0.516-4.389,4.496-7.522,8.88-7.011c4.388,0.517,7.527,4.492,7.011,8.88c-0.036,0.307-2.155,18.851-0.074,30.294    c0.79,4.347-2.093,8.512-6.44,9.302C117.993,251.689,117.511,251.731,117.037,251.731z"/>
		<path d="M326.957,285.559c-0.857,0-1.729-0.139-2.585-0.431c-22.628-7.727-36.326-25.008-39.611-49.977    c-2.364-17.962,1.622-33.602,1.792-34.259c1.112-4.275,5.479-6.839,9.756-5.729c4.271,1.111,6.836,5.47,5.733,9.742    c-0.542,2.12-12.624,51.381,27.5,65.082c4.182,1.428,6.414,5.975,4.986,10.156C333.392,283.466,330.284,285.559,326.957,285.559z"/>
	</g>
</g>















</svg>
