<svg xmlns="http://www.w3.org/2000/svg" xmlns:xlink="http://www.w3.org/1999/xlink" id="Layer_1" x="0" y="0" version="1.1" viewBox="0 0 456.54 456.54" xml:space="preserve" style="enable-background:new 0 0 456.54 456.54"><g><rect style="fill:#ffde55" width="26" height="77.24" x="215.27" y="379.3"/><rect style="fill:#ffde55" width="26" height="77.24" x="215.27"/><rect style="fill:#fceba2" width="26" height="77.239" x="81.169" y="323.75" transform="matrix(-0.7071 -0.7071 0.7071 -0.7071 -95.4776 685.1913)"/><rect style="fill:#fceba2" width="26" height="77.239" x="349.372" y="55.544" transform="matrix(-0.7071 -0.7071 0.7071 -0.7071 552.0227 416.9835)"/><rect style="fill:#ffde55" width="77.24" height="26" y="215.27"/><rect style="fill:#ffde55" width="77.24" height="26" x="379.3" y="215.27"/><rect style="fill:#fceba2" width="26" height="77.239" x="81.169" y="55.548" transform="matrix(0.7071 -0.7071 0.7071 0.7071 -39.005 94.1686)"/><rect style="fill:#fceba2" width="26" height="77.239" x="349.378" y="323.753" transform="matrix(0.7071 -0.7071 0.7071 0.7071 -150.0985 362.3763)"/><circle style="fill:#fceba2" cx="228.267" cy="228.271" r="124.003"/><circle style="fill:#ffde55" cx="228.267" cy="228.271" r="95.142"/></g></svg>