<svg xmlns="http://www.w3.org/2000/svg" xmlns:xlink="http://www.w3.org/1999/xlink" id="Layer_1" x="0" y="0" version="1.1" viewBox="0 0 496 496" xml:space="preserve" style="enable-background:new 0 0 496 496"><g><path style="fill:#515150" d="M319.2,314.4c0,5.6-4.8,10.4-10.4,10.4l0,0c-5.6,0-10.4-4.8-10.4-10.4V296c0-5.6,4.8-10.4,10.4-10.4 l0,0c5.6,0,10.4,4.8,10.4,10.4V314.4z"/><path style="fill:#515150" d="M253.6,169.6c0,18.4-14.4,32.8-32.8,32.8h-112C90.4,202.4,76,188,76,169.6l0,0 c0-18.4,14.4-32.8,32.8-32.8h112C239.2,136.8,253.6,151.2,253.6,169.6L253.6,169.6z"/></g><path style="fill:#879998" d="M349.6,248.8c0,25.6,2.4,46.4-23.2,46.4H28c-25.6,0-23.2-20.8-23.2-46.4v-50.4	c0-25.6,20.8-46.4,46.4-46.4h252c25.6,0,46.4,20.8,46.4,46.4V248.8z"/><path style="fill:#9faaaa" d="M303.2,152h-252c-25.6,0-46.4,20.8-46.4,46.4v1.6c0,17.6,3.2,29.6,23.2,29.6h298.4	c20,0,23.2-12,23.2-29.6v-1.6C349.6,172.8,328.8,152,303.2,152z"/><path style="fill:#515150" d="M292,330.4c0,4-3.2,8-8,8H44c-4,0-8-3.2-8-8v-20c0-4,3.2-8,8-8h240c4,0,8,3.2,8,8V330.4z"/><path style="fill:#cc0d32" d="M472.8,308.8c0,4-3.2,7.2-7.2,7.2H364c-4,0-7.2-3.2-7.2-7.2V148c0-4,0.8-12,4-12l98.4,4.8	c4,0,12.8,32,12.8,36v132H472.8z"/><path style="fill:#bc001b" d="M472.8,208.8v-32c0-4-8.8-36-12.8-36l-70.4,4.8c-4,0-4,8-4,12l-28,150.4c0,4,3.2,7.2,7.2,7.2h48.8	l-0.8,3.2c0,2.4,2.4,4.8,4.8,4.8h69.6c2.4,0,4.8-2.4,4.8-4.8V228C491.2,226.4,480,215.2,472.8,208.8z"/><path style="fill:#a00220" d="M367.2,254.4l-10.4,54.4c0,4,3.2,7.2,7.2,7.2h48.8l-0.8,3.2c0,2.4,2.4,4.8,4.8,4.8h69.6	c2.4,0,4.8-2.4,4.8-4.8v-64.8L367.2,254.4L367.2,254.4z"/><path style="fill:#8e8e8e" d="M496,317.6c0,4-3.2,7.2-7.2,7.2H7.2c-4,0-7.2-3.2-7.2-7.2l0,0c0-4,3.2-7.2,7.2-7.2h482.4	C492.8,311.2,496,314.4,496,317.6L496,317.6z"/><path d="M24.8,326.4c0-20,16-36,36-36s36,16,36,36"/><path style="fill:#8e8e8e" d="M98.4,326.4h-3.2c0-19.2-15.2-34.4-34.4-34.4s-34.4,15.2-34.4,34.4h-3.2c0-20.8,16.8-37.6,37.6-37.6	S98.4,305.6,98.4,326.4z"/><circle style="fill:#203547" cx="60.8" cy="327.2" r="32.8"/><path style="fill:#122130" d="M84,304c12.8,12.8,12.8,33.6,0,46.4s-33.6,12.8-46.4,0"/><circle style="fill:#ffa300" cx="60.8" cy="327.2" r="20.8"/><path style="fill:#ff8500" d="M75.2,312.8c8,8,8,20.8,0,28.8s-20.8,8-28.8,0"/><circle style="fill:#ced8dd" cx="60.8" cy="327.2" r="17.6"/><path style="fill:#b2bbc1" d="M73.6,314.4c7.2,7.2,7.2,18.4,0,25.6s-18.4,7.2-25.6,0"/><path style="opacity:.2;fill:#888f91;enable-background:new" d="M68.8,327.2c0,4.8-4,9.6-8,9.6c-4.8,0-8-4.8-8-9.6	c0-4.8,4-8,8-8C65.6,319.2,68.8,323.2,68.8,327.2z"/><circle style="fill:#e7eff2" cx="60.8" cy="327.2" r="8"/><path style="fill:#dae6ea" d="M60.8,319.2c4.8,0,8,4,8,8c0,4.8-4,8-8,8"/><path style="fill:#666e70" d="M60.8,309.6c-0.8,0-1.6,0-2.4,0c0,2.4,1.6,4.8,2.4,4.8s2.4-1.6,2.4-4.8	C62.4,309.6,61.6,309.6,60.8,309.6z"/><path style="fill:#535a5b" d="M60.8,314.4c0.8,0,2.4-1.6,2.4-4.8c-0.8,0-1.6,0-2.4,0"/><path style="fill:#666e70" d="M58.4,344.8c1.6,0,3.2,0,4.8,0c0-2.4-1.6-4.8-2.4-4.8S58.4,342.4,58.4,344.8z"/><path style="fill:#535a5b" d="M63.2,344.8c0-2.4-1.6-4.8-2.4-4.8"/><path style="fill:#666e70" d="M46.4,316.8c2.4,1.6,4,2.4,4.8,1.6s0-2.4-1.6-4.8C48.8,314.4,47.2,315.2,46.4,316.8z"/><path style="fill:#535a5b" d="M51.2,317.6c0.8-0.8,0-2.4-1.6-4.8"/><path style="fill:#666e70" d="M75.2,338.4c-2.4-1.6-4-2.4-4.8-1.6s0,2.4,1.6,4.8c0.8-0.8,1.6-0.8,1.6-1.6	C73.6,339.2,74.4,339.2,75.2,338.4z"/><path style="fill:#535a5b" d="M73.6,340c0.8-0.8,0.8-1.6,1.6-1.6c-2.4-1.6-4-2.4-4.8-1.6"/><path style="fill:#666e70" d="M43.2,329.6c2.4,0,4.8-1.6,4.8-2.4s-1.6-2.4-4.8-2.4c0,0.8,0,1.6,0,2.4	C42.4,328,42.4,328.8,43.2,329.6z"/><path style="fill:#535a5b" d="M47.2,327.2c0-0.8-1.6-2.4-4.8-2.4c0,0.8,0,1.6,0,2.4"/><path style="fill:#666e70" d="M73.6,327.2c0,0.8,1.6,2.4,4.8,2.4c0-1.6,0-3.2,0-4.8C76,325.6,73.6,326.4,73.6,327.2z"/><path style="fill:#535a5b" d="M78.4,324.8c-2.4,0-4.8,1.6-4.8,2.4"/><path style="fill:#666e70" d="M46.4,338.4c0.8,1.6,2.4,2.4,3.2,3.2c1.6-2.4,2.4-4,1.6-4.8C50.4,336,48.8,336.8,46.4,338.4z"/><path style="fill:#535a5b" d="M49.6,341.6c1.6-2.4,2.4-4,1.6-4.8"/><path style="fill:#666e70" d="M71.2,312.8c-1.6,2.4-2.4,4-1.6,4.8s3.2,0,4.8-1.6C73.6,315.2,72.8,314.4,71.2,312.8z"/><path style="fill:#535a5b" d="M71.2,312.8c-1.6,2.4-2.4,4-1.6,4.8"/><path d="M193.6,326.4c0-20,16-36,36-36s36,16,36,36"/><path style="fill:#8e8e8e" d="M267.2,326.4H264c0-19.2-15.2-34.4-34.4-34.4s-34.4,15.2-34.4,34.4H192c0-20.8,16.8-37.6,37.6-37.6	S267.2,305.6,267.2,326.4z"/><circle style="fill:#203547" cx="229.6" cy="327.2" r="32.8"/><path style="fill:#122130" d="M252.8,304c12.8,12.8,12.8,33.6,0,46.4c-12.8,12.8-33.6,12.8-46.4,0"/><circle style="fill:#ffa300" cx="229.6" cy="327.2" r="20.8"/><path style="fill:#ff8500" d="M244.8,312.8c8,8,8,20.8,0,28.8c-8,8-20.8,8-28.8,0"/><circle style="fill:#ced8dd" cx="229.6" cy="327.2" r="17.6"/><path style="fill:#b2bbc1" d="M242.4,314.4c7.2,7.2,7.2,18.4,0,25.6c-7.2,7.2-18.4,7.2-25.6,0"/><path style="opacity:.2;fill:#888f91;enable-background:new" d="M238.4,327.2c0,4.8-4,9.6-8,9.6c-4.8,0-8-4.8-8-9.6	c0-4.8,4-8,8-8S238.4,323.2,238.4,327.2z"/><circle style="fill:#e7eff2" cx="229.6" cy="327.2" r="8"/><path style="fill:#dae6ea" d="M229.6,319.2c4.8,0,8,4,8,8c0,4.8-4,8-8,8"/><path style="fill:#666e70" d="M229.6,309.6c-0.8,0-1.6,0-2.4,0c0,2.4,1.6,4.8,2.4,4.8c0.8,0,2.4-1.6,2.4-4.8	C231.2,309.6,230.4,309.6,229.6,309.6z"/><path style="fill:#535a5b" d="M229.6,314.4c0.8,0,2.4-1.6,2.4-4.8c-0.8,0-1.6,0-2.4,0"/><path style="fill:#666e70" d="M227.2,344.8c1.6,0,3.2,0,4.8,0c0-2.4-1.6-4.8-2.4-4.8C228.8,340.8,228,342.4,227.2,344.8z"/><path style="fill:#535a5b" d="M232,344.8c0-2.4-1.6-4.8-2.4-4.8"/><path style="fill:#666e70" d="M216,316.8c2.4,1.6,4,2.4,4.8,1.6s0-2.4-1.6-4.8C217.6,314.4,216.8,315.2,216,316.8z"/><path style="fill:#535a5b" d="M220.8,317.6c0.8-0.8,0-2.4-1.6-4.8"/><path style="fill:#666e70" d="M244,338.4c-2.4-1.6-4-2.4-4.8-1.6s0,2.4,1.6,4.8c0.8-0.8,1.6-0.8,1.6-1.6	C243.2,339.2,244,339.2,244,338.4z"/><path style="fill:#535a5b" d="M242.4,340c0.8-0.8,0.8-1.6,1.6-1.6c-2.4-1.6-4-2.4-4.8-1.6"/><path style="fill:#666e70" d="M212,329.6c2.4,0,4.8-1.6,4.8-2.4s-1.6-2.4-4.8-2.4c0,0.8,0,1.6,0,2.4S212,328.8,212,329.6z"/><path style="fill:#535a5b" d="M216.8,327.2c0-0.8-1.6-2.4-4.8-2.4c0,0.8,0,1.6,0,2.4"/><path style="fill:#666e70" d="M243.2,327.2c0,0.8,1.6,2.4,4,2.4c0-1.6,0-3.2,0-4.8C244.8,325.6,243.2,326.4,243.2,327.2z"/><path style="fill:#535a5b" d="M248,324.8c-2.4,0-4,1.6-4,2.4"/><path style="fill:#666e70" d="M216,338.4c0.8,1.6,2.4,2.4,3.2,3.2c1.6-2.4,2.4-4,1.6-4.8C220,336,217.6,336.8,216,338.4z"/><path style="fill:#535a5b" d="M219.2,341.6c1.6-2.4,2.4-4,1.6-4.8"/><path style="fill:#666e70" d="M240.8,312.8c-1.6,2.4-2.4,4-1.6,4.8c0.8,0.8,2.4,0,4.8-1.6C243.2,315.2,242.4,314.4,240.8,312.8z"/><path style="fill:#535a5b" d="M240.8,312.8c-1.6,2.4-2.4,4-1.6,4.8"/><path d="M395.2,326.4c0-20,16-36,36-36s36,16,36,36"/><path style="fill:#8e8e8e" d="M468.8,326.4h-3.2c0-19.2-15.2-34.4-34.4-34.4c-19.2,0-34.4,15.2-34.4,34.4h-3.2	c0-20.8,16.8-37.6,37.6-37.6S468.8,305.6,468.8,326.4z"/><circle style="fill:#203547" cx="431.2" cy="327.2" r="32.8"/><path style="fill:#122130" d="M454.4,304c12.8,12.8,12.8,33.6,0,46.4s-33.6,12.8-46.4,0"/><circle style="fill:#ffa300" cx="431.2" cy="327.2" r="20.8"/><path style="fill:#ff8500" d="M446.4,312.8c8,8,8,20.8,0,28.8s-20.8,8-28.8,0"/><path style="fill:#ced8dd" d="M449.6,327.2c0,9.6-8,17.6-17.6,17.6s-17.6-8-17.6-17.6s8-17.6,17.6-17.6S449.6,317.6,449.6,327.2z"/><path style="fill:#b2bbc1" d="M444,314.4c7.2,7.2,7.2,18.4,0,25.6s-18.4,7.2-25.6,0"/><path style="opacity:.2;fill:#888f91;enable-background:new" d="M440,327.2c0,4.8-4,9.6-8,9.6c-4.8,0-8-4.8-8-9.6	c0-4.8,4-8,8-8S440,323.2,440,327.2z"/><circle style="fill:#e7eff2" cx="431.2" cy="327.2" r="8"/><path style="fill:#dae6ea" d="M431.2,319.2c4.8,0,8,4,8,8c0,4.8-4,8-8,8"/><path style="fill:#666e70" d="M431.2,309.6c-0.8,0-1.6,0-2.4,0c0,2.4,1.6,4.8,2.4,4.8s2.4-1.6,2.4-4.8	C432.8,309.6,432,309.6,431.2,309.6z"/><path style="fill:#535a5b" d="M431.2,314.4c0.8,0,2.4-1.6,2.4-4.8c-0.8,0-1.6,0-2.4,0"/><path style="fill:#666e70" d="M428.8,344.8c1.6,0,3.2,0,4.8,0c0-2.4-1.6-4.8-2.4-4.8S429.6,342.4,428.8,344.8z"/><path style="fill:#535a5b" d="M433.6,344.8c0-2.4-1.6-4.8-2.4-4.8"/><path style="fill:#666e70" d="M417.6,316.8c2.4,1.6,4,2.4,4.8,1.6s0-2.4-1.6-4.8C419.2,314.4,418.4,315.2,417.6,316.8z"/><path style="fill:#535a5b" d="M422.4,317.6c0.8-0.8,0-2.4-1.6-4.8"/><path style="fill:#666e70" d="M445.6,338.4c-2.4-1.6-4-2.4-4.8-1.6s0,2.4,1.6,4.8c0.8-0.8,1.6-0.8,1.6-1.6	C444.8,339.2,445.6,339.2,445.6,338.4z"/><path style="fill:#535a5b" d="M444,340c0.8-0.8,0.8-1.6,1.6-1.6c-2.4-1.6-4-2.4-4.8-1.6"/><path style="fill:#666e70" d="M413.6,329.6c2.4,0,4.8-1.6,4.8-2.4s-1.6-2.4-4.8-2.4c0,0.8,0,1.6,0,2.4S413.6,328.8,413.6,329.6z"/><path style="fill:#535a5b" d="M418.4,327.2c0-0.8-1.6-2.4-4.8-2.4c0,0.8,0,1.6,0,2.4"/><path style="fill:#666e70" d="M444.8,327.2c0,0.8,1.6,2.4,4,2.4c0-1.6,0-3.2,0-4.8C446.4,325.6,444.8,326.4,444.8,327.2z"/><path style="fill:#535a5b" d="M449.6,324.8c-2.4,0-4.8,1.6-4.8,2.4"/><path style="fill:#666e70" d="M417.6,338.4c0.8,1.6,2.4,2.4,3.2,3.2c1.6-2.4,2.4-4,1.6-4.8C421.6,336,419.2,336.8,417.6,338.4z"/><path style="fill:#535a5b" d="M420.8,341.6c1.6-2.4,2.4-4,1.6-4.8"/><path style="fill:#666e70" d="M442.4,312.8c-1.6,2.4-2.4,4-1.6,4.8s2.4,0,4.8-1.6C444.8,315.2,444,314.4,442.4,312.8z"/><path style="fill:#535a5b" d="M442.4,312.8c-1.6,2.4-2.4,4-1.6,4.8"/><path style="fill:#51859b" d="M438.4,164v24c0,4,3.2,8,8,8h26.4v-19.2c0-1.6-2.4-11.2-5.6-20h-20.8	C441.6,156.8,438.4,160,438.4,164z"/><g><path style="fill:#81b6c9" d="M468,160l-29.6,29.6c0,1.6,0.8,3.2,1.6,4l29.6-29.6C468.8,162.4,468.8,160.8,468,160z"/><polygon style="fill:#81b6c9" points="458.4 196 472.8 196 472.8 182.4"/><path style="fill:#81b6c9" d="M447.2,156.8L447.2,156.8c-4.8,0-8.8,3.2-8.8,8v0.8L447.2,156.8z"/><polygon style="fill:#81b6c9" points="462.4 156.8 451.2 156.8 438.4 169.6 438.4 180.8"/></g><path style="fill:#cc0d32" d="M448.8,206.4c0,0.8-0.8,1.6-1.6,1.6h-5.6c-0.8,0-1.6-0.8-1.6-1.6l0,0c0-0.8,0.8-1.6,1.6-1.6h6.4	C448.8,204.8,448.8,205.6,448.8,206.4L448.8,206.4z"/><path style="fill:#ffda00" d="M488,270.4c0,1.6-1.6,4-4,4l0,0c-2.4,0-4-1.6-4-4v-12.8c0-2.4,1.6-4,4-4l0,0c2.4,0,4,1.6,4,4V270.4z"/><path style="fill:#b1b2b2" d="M102.4,318.4c-4,0-8-3.2-8-7.2v-14.4c0-4,3.2-7.2,8-7.2h91.2c4,0,7.2,3.2,7.2,7.2v14.4	c0,4-3.2,7.2-7.2,7.2H102.4z"/><path style="fill:#8e8e8e" d="M196,318.4c0,3.2-2.4,5.6-5.6,5.6h-84.8c-3.2,0-5.6-2.4-5.6-5.6v-29.6c0-3.2,2.4-5.6,5.6-5.6h84.8	c3.2,0,5.6,2.4,5.6,5.6V318.4z"/><path style="fill:#9fa0a0" d="M190.4,284h-84.8c-3.2,0-5.6,2.4-5.6,5.6v11.2c0,3.2,2.4,5.6,5.6,5.6h84.8c3.2,0,5.6-2.4,5.6-5.6	v-11.2C196,286.4,193.6,284,190.4,284z"/><g><circle style="fill:#6c6d6d" cx="186.4" cy="292" r="1.6"/><circle style="fill:#6c6d6d" cx="186.4" cy="300" r="1.6"/><circle style="fill:#6c6d6d" cx="186.4" cy="308" r="1.6"/><circle style="fill:#6c6d6d" cx="186.4" cy="316" r="1.6"/><circle style="fill:#6c6d6d" cx="179.2" cy="292" r="1.6"/><circle style="fill:#6c6d6d" cx="179.2" cy="300" r="1.6"/><circle style="fill:#6c6d6d" cx="179.2" cy="308" r="1.6"/><circle style="fill:#6c6d6d" cx="179.2" cy="316" r="1.6"/><circle style="fill:#6c6d6d" cx="171.2" cy="292" r="1.6"/><circle style="fill:#6c6d6d" cx="171.2" cy="300" r="1.6"/><circle style="fill:#6c6d6d" cx="171.2" cy="308" r="1.6"/><circle style="fill:#6c6d6d" cx="171.2" cy="316" r="1.6"/><circle style="fill:#6c6d6d" cx="163.2" cy="292" r="1.6"/><circle style="fill:#6c6d6d" cx="163.2" cy="300" r="1.6"/><circle style="fill:#6c6d6d" cx="163.2" cy="308" r="1.6"/><circle style="fill:#6c6d6d" cx="163.2" cy="316" r="1.6"/><circle style="fill:#6c6d6d" cx="156" cy="292" r="1.6"/><circle style="fill:#6c6d6d" cx="156" cy="300" r="1.6"/><circle style="fill:#6c6d6d" cx="156" cy="308" r="1.6"/><circle style="fill:#6c6d6d" cx="156" cy="316" r="1.6"/><circle style="fill:#6c6d6d" cx="148" cy="292" r="1.6"/><circle style="fill:#6c6d6d" cx="148" cy="300" r="1.6"/><circle style="fill:#6c6d6d" cx="148" cy="308" r="1.6"/><circle style="fill:#6c6d6d" cx="148" cy="316" r="1.6"/><circle style="fill:#6c6d6d" cx="140" cy="292" r="1.6"/><circle style="fill:#6c6d6d" cx="140" cy="300" r="1.6"/><circle style="fill:#6c6d6d" cx="140" cy="308" r="1.6"/><circle style="fill:#6c6d6d" cx="140" cy="316" r="1.6"/><circle style="fill:#6c6d6d" cx="132.8" cy="292" r="1.6"/><circle style="fill:#6c6d6d" cx="132.8" cy="300" r="1.6"/><circle style="fill:#6c6d6d" cx="132.8" cy="308" r="1.6"/><circle style="fill:#6c6d6d" cx="132.8" cy="316" r="1.6"/><circle style="fill:#6c6d6d" cx="124.8" cy="292" r="1.6"/><circle style="fill:#6c6d6d" cx="124.8" cy="300" r="1.6"/><circle style="fill:#6c6d6d" cx="124.8" cy="308" r="1.6"/><circle style="fill:#6c6d6d" cx="124.8" cy="316" r="1.6"/><circle style="fill:#6c6d6d" cx="116.8" cy="292" r="1.6"/><circle style="fill:#6c6d6d" cx="116.8" cy="300" r="1.6"/><circle style="fill:#6c6d6d" cx="116.8" cy="308" r="1.6"/><circle style="fill:#6c6d6d" cx="116.8" cy="316" r="1.6"/><circle style="fill:#6c6d6d" cx="109.6" cy="292" r="1.6"/><circle style="fill:#6c6d6d" cx="109.6" cy="300" r="1.6"/><circle style="fill:#6c6d6d" cx="109.6" cy="308" r="1.6"/><circle style="fill:#6c6d6d" cx="109.6" cy="316" r="1.6"/></g><path style="fill:#ff9100" d="M176.8,177.6c-12.8,5.6-22.4,24-22.4,45.6s9.6,40,22.4,45.6V177.6z"/><path style="fill:#ff5b00" d="M176.8,200.8c9.6,4,16.8,17.6,16.8,33.6s-7.2,29.6-16.8,33.6V200.8z"/><path style="fill:#ff7f00" d="M157.6,227.2c0,19.2,8,34.4,19.2,40v-80C165.6,192.8,157.6,208.8,157.6,227.2z"/></svg>