<?xml version="1.0" encoding="iso-8859-1"?>
<!-- Generator: Adobe Illustrator 19.0.0, SVG Export Plug-In . SVG Version: 6.00 Build 0)  -->
<svg xmlns="http://www.w3.org/2000/svg" xmlns:xlink="http://www.w3.org/1999/xlink" version="1.1" id="Layer_1" x="0px" y="0px" viewBox="0 0 447.083 447.083" style="enable-background:new 0 0 447.083 447.083;" xml:space="preserve" width="512" height="512">
<g>
	<path style="fill:#F4A026;" d="M263.252,163.129c0.967-11.32,0.719-33.052-11.807-51.41l-10.298-15.092l18.075,2.669   c7.806,1.152,15.379,3.009,22.508,5.519c27.65,9.758,45.993,28.241,54.524,54.94l3.334,10.436h-13.385   c-18.255,0-36.594,0.54-54.505,1.605l-9.233,0.549L263.252,163.129z"/>
	<path style="fill:#F4A026;" d="M287.022,335.83c4.159-10.048,5.482-21.876,5.9-28.033l0.521-7.665l7.68,0.211   c8.406,0.23,16.902,0.348,25.251,0.348c4.786,0,9.755-0.118,14.768-0.352l15.663-0.729l-8.603,13.109   c-9.146,13.938-22.602,24.186-39.994,30.457c-3.883,1.399-7.926,2.582-12.017,3.514l-15.086,3.438L287.022,335.83z"/>
	<path style="fill:#F4A026;" d="M104.369,269.13l10.424,1.934c5.256,0.976,10.491,2.361,15.56,4.118   c11.143,3.845,23.889,7.361,37.874,10.446l28.52,6.293l-87.493,28.758L104.369,269.13z"/>
	<path style="fill:#F4A026;" d="M109.256,149.014l80.935,31.248l-25.538,5.828c-18.771,4.283-34.961,9.294-48.118,14.892   l-12.257,5.215L109.256,149.014z"/>
	<path style="fill:#E46A53;" d="M343.99,300.548l-14.408,0.124c-1.063,0.01-2.127,0.019-3.208,0.019   c-77.647,0-149.098-9.301-196.033-25.519c-10.871-3.751-21.865-5.7-32.675-5.792h-7.642c-11.526,0-22.598,4.77-30.378,13.086   L9.201,336.4l6.906-29.259c6.402-27.123,9.786-50.562,9.786-67.781c0-17.221-3.384-40.659-9.786-67.782l-6.906-29.259   l50.445,53.936c7.773,8.31,18.726,13.075,30.047,13.075c6.259,0,12.51-1.484,18.077-4.293   c42.631-21.494,126.394-34.847,218.604-34.847c30.049,0,58.654,8.683,80.545,24.447c20.14,14.498,32.165,33.744,32.165,51.482   c0,29.347-33.45,49.428-89.479,53.717l-3.992,0.306L343.99,300.548z"/>
	<g>
		<circle style="fill:#050000;" cx="385.564" cy="228.566" r="8"/>
		<path style="fill:#050000;" d="M411.593,188.14c-18.49-13.31-41.43-21.84-65.99-24.79c-8.24-32-29.36-54.84-61.21-66.08    c-23.93-8.44-45.38-7.31-46.28-7.26c-3.32,0.19-6.17,2.42-7.17,5.59c-0.99,3.17,0.08,6.63,2.69,8.69    c23.65,18.58,22.57,49.8,21.38,60.64c-22.2,1.75-43.29,4.3-62.71,7.57l-80.17-30.95c-2.34-0.91-4.98-0.66-7.11,0.68    c-2.14,1.33-3.52,3.58-3.74,6.09l-4.54,52.23c-2.29,0.52-4.65,0.78-7.05,0.78c-9.12,0-17.94-3.84-24.21-10.54l-51.64-55.22    c-2.53-2.71-6.6-3.32-9.82-1.48c-3.22,1.85-4.75,5.67-3.69,9.22c8.49,28.6,17.56,68.85,17.56,96.05c0,27.2-9.07,67.45-17.56,96.05    c-1.06,3.56,0.47,7.37,3.69,9.22c1.25,0.71,2.62,1.06,3.98,1.06c2.16,0,4.29-0.88,5.84-2.54l51.64-55.22    c6.27-6.7,15.22-10.55,24.54-10.55l7.09-0.01l4.18,44.06c0.23,2.42,1.55,4.61,3.58,5.94c1.32,0.86,2.85,1.3,4.38,1.3    c0.84,0,1.69-0.13,2.5-0.4l87.44-28.72c26.23,4.1,55.19,6.9,85.69,8.23c-0.84,10.85-3.85,28.73-12.03,35.02    c-2.72,2.09-3.8,5.68-2.7,8.92c1.11,3.24,4.15,5.43,7.58,5.43c2.42,0,59.52-0.59,82.92-50.36c19.33-2.25,36.15-6.49,49.58-12.59    c30.46-13.84,36.85-33.79,36.85-48.08C447.083,225.51,434.143,204.38,411.593,188.14z M279.074,112.36    c25.19,8.89,41.83,25.64,49.56,49.83h-2.43c-18.75,0-37.16,0.56-54.98,1.62c1.05-12.29,0.77-36.17-13.17-56.6    C264.283,108.13,271.543,109.71,279.074,112.36z M116.303,160.31l46.57,17.98c-19.06,4.35-35.79,9.51-49.47,15.33L116.303,160.31z     M116.274,309.95l-2.94-31.02c4.8,0.89,9.61,2.15,14.4,3.81c11.56,3.99,24.58,7.57,38.77,10.7L116.274,309.95z M305.493,335.65    c-3.91,1.41-7.66,2.46-11.08,3.24c4.47-10.8,5.98-23.05,6.49-30.55c8.4,0.23,16.9,0.35,25.47,0.35c5.17,0,10.21-0.13,15.14-0.36    C333.343,320.78,321.274,329.96,305.493,335.65z M348.993,291.86c-23.21-26.51-13.74-69.4-13.64-69.86    c0.99-4.3-1.68-8.59-5.98-9.59s-8.61,1.67-9.61,5.98c-0.45,1.96-9.5,42.41,10.02,74.28c-1.13,0.01-2.26,0.02-3.41,0.02    c-76.79,0-147.29-9.14-193.42-25.08c-11.68-4.03-23.52-6.13-35.22-6.23h-7.71c-13.74,0-26.94,5.7-36.22,15.62l-29.91,31.98    c4.95-20.97,10-47.73,10-69.62c0-21.89-5.05-48.65-10-69.62l29.91,31.98c9.28,9.92,22.36,15.61,35.89,15.61    c7.5,0,15-1.78,21.68-5.15c41.59-20.97,123.98-33.99,215-33.99c28.37,0,55.32,8.14,75.87,22.94c18.06,13,28.84,29.81,28.84,44.99    C431.083,270.89,399.553,287.99,348.993,291.86z"/>
	</g>
</g>















</svg>
